<svg width="410" height="107" viewBox="0 0 410 107" fill="none" xmlns="http://www.w3.org/2000/svg">
<path d="M139.384 72.832C132.557 72.832 127.224 70.9973 123.384 67.328C119.544 63.6587 117.624 58.4747 117.624 51.776C117.624 47.2107 118.52 43.1787 120.312 39.68C122.147 36.1813 124.728 33.4933 128.056 31.616C131.384 29.696 135.224 28.736 139.576 28.736C143.117 28.736 146.531 29.376 149.816 30.656L148.088 38.912C145.187 37.5893 142.371 36.928 139.64 36.928C135.757 36.928 132.685 38.208 130.424 40.768C128.163 43.2853 127.032 46.656 127.032 50.88C127.032 55.1893 128.227 58.5387 130.616 60.928C133.005 63.3173 136.312 64.512 140.536 64.512C143.309 64.512 145.997 64.064 148.6 63.168L150.008 71.04C146.893 72.2347 143.352 72.832 139.384 72.832ZM171.642 72.96C168.314 72.96 165.37 72.2347 162.81 70.784C160.293 69.3333 158.33 67.3067 156.922 64.704C155.514 62.0587 154.81 59.008 154.81 55.552C154.81 52.096 155.493 49.0667 156.858 46.464C158.266 43.8187 160.229 41.7707 162.746 40.32C165.306 38.8693 168.25 38.144 171.578 38.144C174.906 38.144 177.829 38.8693 180.346 40.32C182.906 41.728 184.869 43.7333 186.234 46.336C187.642 48.9387 188.346 51.9467 188.346 55.36C188.346 58.816 187.642 61.888 186.234 64.576C184.869 67.2213 182.906 69.2907 180.346 70.784C177.829 72.2347 174.927 72.96 171.642 72.96ZM171.578 65.152C173.882 65.152 175.717 64.2773 177.082 62.528C178.49 60.736 179.194 58.3893 179.194 55.488C179.194 52.5867 178.49 50.2827 177.082 48.576C175.717 46.8267 173.882 45.952 171.578 45.952C169.274 45.952 167.418 46.8267 166.01 48.576C164.645 50.2827 163.962 52.5867 163.962 55.488C163.962 58.3893 164.645 60.736 166.01 62.528C167.418 64.2773 169.274 65.152 171.578 65.152ZM195.035 39.04H203.867V44.736C205.232 42.4747 206.811 40.8107 208.603 39.744C210.395 38.6773 212.486 38.144 214.875 38.144C218.416 38.144 221.19 39.2107 223.195 41.344C225.2 43.4347 226.203 46.3573 226.203 50.112V72H217.179V51.52C217.179 49.8133 216.752 48.4907 215.899 47.552C215.046 46.5707 213.894 46.08 212.443 46.08C210.736 46.08 209.115 46.72 207.579 48C206.043 49.28 204.87 50.9013 204.059 52.864V72H195.035V39.04ZM234.223 39.04H243.055V44.736C244.42 42.4747 245.999 40.8107 247.791 39.744C249.583 38.6773 251.673 38.144 254.063 38.144C257.604 38.144 260.377 39.2107 262.382 41.344C264.388 43.4347 265.391 46.3573 265.391 50.112V72H256.367V51.52C256.367 49.8133 255.94 48.4907 255.087 47.552C254.233 46.5707 253.081 46.08 251.631 46.08C249.924 46.08 248.303 46.72 246.767 48C245.231 49.28 244.057 50.9013 243.247 52.864V72H234.223V39.04ZM289.275 72.96C283.941 72.96 279.739 71.424 276.667 68.352C273.637 65.28 272.123 61.0133 272.123 55.552C272.123 52.0107 272.784 48.9387 274.107 46.336C275.429 43.6907 277.285 41.664 279.675 40.256C282.107 38.848 284.944 38.144 288.187 38.144C292.965 38.144 296.635 39.68 299.195 42.752C301.755 45.824 303.035 50.2613 303.035 56.064C303.035 57.0453 303.013 57.7707 302.971 58.24H281.211C281.637 60.5013 282.619 62.2293 284.155 63.424C285.691 64.576 287.76 65.152 290.363 65.152C291.941 65.152 293.584 64.96 295.291 64.576C296.997 64.1493 298.491 63.5947 299.771 62.912L301.243 70.144C299.536 71.04 297.637 71.7227 295.547 72.192C293.499 72.704 291.408 72.96 289.275 72.96ZM294.395 51.456C294.267 49.6213 293.627 48.1707 292.475 47.104C291.323 45.9947 289.787 45.44 287.867 45.44C286.032 45.44 284.517 45.9733 283.323 47.04C282.171 48.1067 281.445 49.5787 281.147 51.456H294.395ZM325.458 72.96C319.996 72.96 315.751 71.5093 312.722 68.608C309.735 65.7067 308.242 61.6107 308.242 56.32C308.242 52.736 308.946 49.5787 310.354 46.848C311.762 44.0747 313.746 41.9413 316.306 40.448C318.866 38.912 321.831 38.144 325.202 38.144C326.78 38.144 328.423 38.336 330.13 38.72C331.879 39.0613 333.223 39.4667 334.162 39.936L332.434 47.552C331.452 47.0827 330.364 46.72 329.17 46.464C328.018 46.1653 326.93 46.016 325.906 46.016C323.26 46.016 321.127 46.912 319.506 48.704C317.927 50.496 317.138 52.864 317.138 55.808C317.138 58.7947 317.948 61.0987 319.57 62.72C321.234 64.3413 323.58 65.152 326.61 65.152C328.615 65.152 330.77 64.768 333.074 64L334.418 71.296C331.644 72.4053 328.658 72.96 325.458 72.96ZM353.819 72.96C350.747 72.96 348.357 72.192 346.651 70.656C344.987 69.0773 344.155 66.8587 344.155 64V46.784H339.035V39.04H344.155V32C347.184 31.488 350.171 31.104 353.115 30.848V39.04H361.435V46.784H353.115V62.336C353.115 63.232 353.371 63.9147 353.883 64.384C354.437 64.8533 355.205 65.088 356.187 65.088C357.381 65.088 358.747 64.8107 360.283 64.256L362.267 71.04C359.536 72.32 356.72 72.96 353.819 72.96ZM386.772 72.832C383.231 72.832 380.116 72.0853 377.428 70.592C374.74 69.0987 372.649 67.008 371.156 64.32C369.705 61.5893 368.98 58.4533 368.98 54.912V29.376H378.324V54.208C378.324 57.3653 379.071 59.8827 380.564 61.76C382.1 63.5947 384.169 64.512 386.772 64.512C389.375 64.512 391.444 63.5947 392.98 61.76C394.516 59.8827 395.284 57.3653 395.284 54.208V29.376H404.564V54.912C404.564 58.4533 403.817 61.5893 402.324 64.32C400.873 67.008 398.804 69.0987 396.116 70.592C393.428 72.0853 390.313 72.832 386.772 72.832Z" fill="#EC4861"/>
<path d="M127.998 92.6748H128.899C128.826 93.3926 128.628 94.0127 128.306 94.5352C127.983 95.0527 127.544 95.4507 126.987 95.729C126.431 96.0073 125.759 96.1465 124.973 96.1465C124.368 96.1465 123.818 96.0317 123.325 95.8022C122.837 95.5728 122.417 95.248 122.065 94.8281C121.714 94.4033 121.443 93.8955 121.252 93.3047C121.062 92.7139 120.967 92.0571 120.967 91.3345V90.0015C120.967 89.2788 121.062 88.6245 121.252 88.0386C121.443 87.4478 121.716 86.9399 122.073 86.5151C122.429 86.0903 122.856 85.7632 123.354 85.5337C123.853 85.3042 124.414 85.1895 125.039 85.1895C125.796 85.1895 126.45 85.3286 127.002 85.6069C127.554 85.8804 127.988 86.2759 128.306 86.7935C128.628 87.311 128.826 87.936 128.899 88.6685H127.998C127.93 88.0923 127.778 87.604 127.544 87.2036C127.31 86.8032 126.985 86.498 126.57 86.2881C126.16 86.0732 125.649 85.9658 125.039 85.9658C124.541 85.9658 124.097 86.061 123.706 86.2515C123.315 86.4419 122.983 86.7153 122.71 87.0718C122.437 87.4233 122.227 87.8457 122.08 88.3389C121.938 88.832 121.868 89.3813 121.868 89.9868V91.3345C121.868 91.9204 121.936 92.46 122.073 92.9531C122.209 93.4463 122.41 93.8735 122.673 94.2349C122.942 94.5962 123.269 94.877 123.655 95.0771C124.041 95.2773 124.48 95.3774 124.973 95.3774C125.603 95.3774 126.128 95.2773 126.548 95.0771C126.973 94.8721 127.302 94.5693 127.537 94.1689C127.771 93.7686 127.925 93.2705 127.998 92.6748ZM149.245 90.0967V91.2393C149.245 91.9863 149.147 92.6626 148.952 93.2681C148.761 93.8687 148.483 94.3838 148.117 94.8135C147.755 95.2432 147.321 95.5728 146.813 95.8022C146.305 96.0317 145.734 96.1465 145.099 96.1465C144.479 96.1465 143.913 96.0317 143.4 95.8022C142.892 95.5728 142.455 95.2432 142.089 94.8135C141.723 94.3838 141.44 93.8687 141.239 93.2681C141.039 92.6626 140.939 91.9863 140.939 91.2393V90.0967C140.939 89.3496 141.037 88.6758 141.232 88.0752C141.432 87.4697 141.715 86.9521 142.082 86.5225C142.448 86.0928 142.885 85.7632 143.393 85.5337C143.9 85.3042 144.464 85.1895 145.085 85.1895C145.719 85.1895 146.291 85.3042 146.798 85.5337C147.306 85.7632 147.743 86.0928 148.109 86.5225C148.476 86.9521 148.756 87.4697 148.952 88.0752C149.147 88.6758 149.245 89.3496 149.245 90.0967ZM148.351 91.2393V90.082C148.351 89.4521 148.278 88.8857 148.131 88.3828C147.99 87.8799 147.777 87.4502 147.494 87.0938C147.216 86.7373 146.874 86.4639 146.469 86.2734C146.064 86.083 145.602 85.9878 145.085 85.9878C144.582 85.9878 144.13 86.083 143.73 86.2734C143.329 86.4639 142.987 86.7373 142.704 87.0938C142.426 87.4502 142.211 87.8799 142.06 88.3828C141.913 88.8857 141.84 89.4521 141.84 90.082V91.2393C141.84 91.874 141.913 92.4453 142.06 92.9531C142.211 93.4561 142.428 93.8882 142.712 94.2495C142.995 94.606 143.337 94.8794 143.737 95.0698C144.142 95.2603 144.596 95.3555 145.099 95.3555C145.622 95.3555 146.083 95.2603 146.483 95.0698C146.884 94.8794 147.223 94.606 147.502 94.2495C147.78 93.8882 147.99 93.4561 148.131 92.9531C148.278 92.4453 148.351 91.874 148.351 91.2393ZM169.737 85.3359V96H168.829L162.698 86.8887V96H161.798V85.3359H162.698L168.843 94.4473V85.3359H169.737ZM190.676 85.3359V96H189.768L183.637 86.8887V96H182.737V85.3359H183.637L189.783 94.4473V85.3359H190.676ZM210.304 95.231V96H204.306V95.231H210.304ZM204.577 85.3359V96H203.676V85.3359H204.577ZM209.557 90.1187V90.8877H204.306V90.1187H209.557ZM210.267 85.3359V86.1123H204.306V85.3359H210.267ZM229.134 92.6748H230.035C229.961 93.3926 229.764 94.0127 229.441 94.5352C229.119 95.0527 228.68 95.4507 228.123 95.729C227.566 96.0073 226.895 96.1465 226.109 96.1465C225.503 96.1465 224.954 96.0317 224.461 95.8022C223.973 95.5728 223.553 95.248 223.201 94.8281C222.85 94.4033 222.579 93.8955 222.388 93.3047C222.198 92.7139 222.103 92.0571 222.103 91.3345V90.0015C222.103 89.2788 222.198 88.6245 222.388 88.0386C222.579 87.4478 222.852 86.9399 223.208 86.5151C223.565 86.0903 223.992 85.7632 224.49 85.5337C224.988 85.3042 225.55 85.1895 226.175 85.1895C226.932 85.1895 227.586 85.3286 228.138 85.6069C228.689 85.8804 229.124 86.2759 229.441 86.7935C229.764 87.311 229.961 87.936 230.035 88.6685H229.134C229.065 88.0923 228.914 87.604 228.68 87.2036C228.445 86.8032 228.121 86.498 227.706 86.2881C227.295 86.0732 226.785 85.9658 226.175 85.9658C225.677 85.9658 225.232 86.061 224.842 86.2515C224.451 86.4419 224.119 86.7153 223.846 87.0718C223.572 87.4233 223.362 87.8457 223.216 88.3389C223.074 88.832 223.003 89.3813 223.003 89.9868V91.3345C223.003 91.9204 223.072 92.46 223.208 92.9531C223.345 93.4463 223.545 93.8735 223.809 94.2349C224.078 94.5962 224.405 94.877 224.791 95.0771C225.176 95.2773 225.616 95.3774 226.109 95.3774C226.739 95.3774 227.264 95.2773 227.684 95.0771C228.108 94.8721 228.438 94.5693 228.672 94.1689C228.907 93.7686 229.061 93.2705 229.134 92.6748ZM245.861 85.3359V96H244.968V85.3359H245.861ZM249.516 85.3359V86.1123H241.32V85.3359H249.516ZM275.45 85.3359H276.358L280.298 94.7256L284.246 85.3359H285.147L280.642 96H279.954L275.45 85.3359ZM275.171 85.3359H275.97L276.065 91.3418V96H275.171V85.3359ZM284.641 85.3359H285.44V96H284.539V91.3418L284.641 85.3359ZM306.298 90.0967V91.2393C306.298 91.9863 306.201 92.6626 306.005 93.2681C305.815 93.8687 305.537 94.3838 305.17 94.8135C304.809 95.2432 304.374 95.5728 303.867 95.8022C303.359 96.0317 302.787 96.1465 302.153 96.1465C301.533 96.1465 300.966 96.0317 300.454 95.8022C299.946 95.5728 299.509 95.2432 299.142 94.8135C298.776 94.3838 298.493 93.8687 298.293 93.2681C298.093 92.6626 297.993 91.9863 297.993 91.2393V90.0967C297.993 89.3496 298.09 88.6758 298.286 88.0752C298.486 87.4697 298.769 86.9521 299.135 86.5225C299.501 86.0928 299.938 85.7632 300.446 85.5337C300.954 85.3042 301.518 85.1895 302.138 85.1895C302.773 85.1895 303.344 85.3042 303.852 85.5337C304.36 85.7632 304.797 86.0928 305.163 86.5225C305.529 86.9521 305.81 87.4697 306.005 88.0752C306.201 88.6758 306.298 89.3496 306.298 90.0967ZM305.405 91.2393V90.082C305.405 89.4521 305.331 88.8857 305.185 88.3828C305.043 87.8799 304.831 87.4502 304.548 87.0938C304.269 86.7373 303.928 86.4639 303.522 86.2734C303.117 86.083 302.656 85.9878 302.138 85.9878C301.635 85.9878 301.183 86.083 300.783 86.2734C300.383 86.4639 300.041 86.7373 299.758 87.0938C299.479 87.4502 299.265 87.8799 299.113 88.3828C298.967 88.8857 298.893 89.4521 298.893 90.082V91.2393C298.893 91.874 298.967 92.4453 299.113 92.9531C299.265 93.4561 299.482 93.8882 299.765 94.2495C300.048 94.606 300.39 94.8794 300.79 95.0698C301.196 95.2603 301.65 95.3555 302.153 95.3555C302.675 95.3555 303.137 95.2603 303.537 95.0698C303.937 94.8794 304.277 94.606 304.555 94.2495C304.833 93.8882 305.043 93.4561 305.185 92.9531C305.331 92.4453 305.405 91.874 305.405 91.2393ZM318.829 85.3359H322.293C323.031 85.3359 323.67 85.4556 324.212 85.6948C324.754 85.9341 325.172 86.2881 325.465 86.7568C325.763 87.2207 325.912 87.792 325.912 88.4707C325.912 88.9736 325.804 89.4302 325.589 89.8403C325.379 90.2505 325.089 90.5947 324.718 90.873C324.347 91.1465 323.917 91.3345 323.429 91.437L323.114 91.5542H319.415L319.4 90.7852H322.499C323.055 90.7852 323.519 90.6777 323.89 90.4629C324.261 90.248 324.54 89.9648 324.725 89.6133C324.916 89.2568 325.011 88.876 325.011 88.4707C325.011 87.9873 324.906 87.5698 324.696 87.2183C324.491 86.8618 324.186 86.5884 323.78 86.3979C323.375 86.2075 322.879 86.1123 322.293 86.1123H319.73V96H318.829V85.3359ZM325.414 96L322.652 91.2319L323.619 91.2246L326.373 95.9048V96H325.414ZM345.291 95.231V96H339.292V95.231H345.291ZM339.563 85.3359V96H338.662V85.3359H339.563ZM344.544 90.1187V90.8877H339.292V90.1187H344.544ZM345.254 85.3359V86.1123H339.292V85.3359H345.254Z" fill="white"/>
<path fill-rule="evenodd" clip-rule="evenodd" d="M53.5 107C83.0472 107 107 83.0472 107 53.5C107 23.9528 83.0472 0 53.5 0C23.9528 0 0 23.9528 0 53.5C0 83.0472 23.9528 107 53.5 107ZM53.5 99.8378C27.9083 99.8378 7.16219 79.0917 7.16219 53.5C7.16219 27.9083 27.9083 7.16219 53.5 7.16219C79.0917 7.16219 99.8378 27.9083 99.8378 53.5C99.8378 79.0917 79.0917 99.8378 53.5 99.8378ZM35 36H23V60H35V36ZM71 36H83V60H71V36ZM53 71C56.3137 71 59 73.6863 59 77V84H47V77C47 73.6863 49.6863 71 53 71Z" fill="#EC4861"/>
</svg>
